<?xml version="1.0" encoding="utf-8"?>
<!-- Svg Vector Icons : http://www.onlinewebfonts.com/icon -->
<!DOCTYPE svg PUBLIC "-//W3C//DTD SVG 1.1//EN" "http://www.w3.org/Graphics/SVG/1.1/DTD/svg11.dtd">
<svg version="1.1" xmlns="http://www.w3.org/2000/svg" xmlns:xlink="http://www.w3.org/1999/xlink" x="0px" y="0px" viewBox="0 0 256 256" enable-background="new 0 0 256 256" xml:space="preserve">
<metadata> Svg Vector Icons : http://www.onlinewebfonts.com/icon </metadata>
<g><g><path fill="#000000" d="M10,128c0,13.4,10.9,24.3,24.3,24.3s24.2-10.9,24.2-24.3s-10.9-24.3-24.3-24.3S10,114.6,10,128z"/><path fill="#000000" d="M103.7,128c0,13.4,10.9,24.3,24.3,24.3c13.4,0,24.3-10.9,24.3-24.3s-10.9-24.3-24.3-24.3C114.6,103.7,103.7,114.6,103.7,128L103.7,128z"/><path fill="#000000" d="M197.5,128c0,13.4,10.9,24.3,24.3,24.3c13.4,0,24.3-10.9,24.3-24.3c0-13.4-10.9-24.3-24.3-24.3C208.3,103.7,197.5,114.6,197.5,128z"/></g></g>
</svg>